<?xml version="1.0" standalone="no"?>
<!DOCTYPE svg PUBLIC "-//W3C//DTD SVG 20010904//EN"
 "http://www.w3.org/TR/2001/REC-SVG-20010904/DTD/svg10.dtd">
<svg version="1.0" xmlns="http://www.w3.org/2000/svg"
 width="700.000000pt" height="700.000000pt" viewBox="0 0 700.000000 700.000000"
 preserveAspectRatio="xMidYMid meet">
<metadata>
Created by potrace 1.14, written by Peter Selinger 2001-2017
</metadata>
<g transform="translate(0.000000,700.000000) scale(0.100000,-0.100000)"
fill="#000000" stroke="none">
<path d="M0 3500 l0 -3500 3500 0 3500 0 0 3500 0 3500 -3500 0 -3500 0 0
-3500z m5480 2994 c140 -42 246 -168 297 -354 17 -62 18 -200 18 -2640 0
-2440 -1 -2578 -18 -2640 -38 -138 -117 -258 -208 -315 -92 -59 31 -55 -2074
-53 l-1930 3 -62 29 c-121 55 -222 197 -255 356 -19 96 -19 5144 0 5240 30
143 128 292 227 343 93 48 5 46 2036 46 1720 1 1921 -1 1969 -15z"/>
<path d="M1642 6279 c-235 -39 -349 -283 -253 -540 50 -132 148 -247 419 -487
153 -135 219 -207 244 -263 15 -34 24 -37 33 -9 13 42 90 124 257 272 95 85
198 182 229 214 168 179 230 327 207 496 -35 259 -291 397 -524 283 -47 -23
-145 -114 -172 -160 l-12 -20 -12 20 c-25 42 -110 123 -155 147 -81 44 -175
61 -261 47z"/>
<path d="M3120 4630 l0 -60 138 0 c154 0 204 -10 238 -47 l24 -26 0 -856 c0
-928 0 -918 -56 -1036 -99 -210 -362 -292 -591 -186 -146 69 -242 223 -200
323 18 43 38 49 102 32 109 -29 164 -15 227 54 100 110 60 301 -77 371 -40 21
-64 26 -125 26 -65 0 -82 -4 -130 -31 -119 -67 -181 -190 -181 -359 -1 -166
41 -273 151 -389 114 -120 243 -181 413 -195 416 -34 742 175 802 516 11 62
14 243 15 896 0 907 -3 864 65 893 22 9 71 14 140 14 l105 0 0 60 0 60 -530 0
-530 0 0 -60z"/>
<path d="M4889 1972 c-25 -37 -89 -106 -149 -160 -376 -338 -446 -419 -500
-582 -31 -91 -30 -213 1 -295 31 -82 112 -163 194 -194 50 -19 76 -22 150 -19
123 4 197 40 288 138 l64 69 14 -25 c21 -40 122 -128 174 -153 230 -108 474
29 516 291 18 113 -9 219 -89 343 -57 89 -153 188 -368 380 -111 99 -185 174
-211 213 l-40 59 -44 -65z"/>
</g>
</svg>
